# xmcd
#
# Track frame offsets: 
#        150
#        11711
#        23146
#        35356
#        49663
#        62208
#        73745
#        85565
#        95827
#        110579
#        121707
#        134244
#        146570
#        160626
#        174472
#        188054
#        199640
#        213699
#        226983
#        241027
#        254638
#        267698
#        277620
#        289667
#        304177
#
# Disc length: 4224 seconds
#
# Revision: 1
# Processed by: cddbd v1.5.2PL0 Copyright (c) Steve Scherf et al.
# Submitted via: ExactAudioCopy v1.0b3
#
DISCID=6d107e19
DTITLE=Muddy Waters - The Complete Aristocrat and Chess Singles As and Bs 
DTITLE=1947-62 CD 1
DYEAR=2014
DGENRE=Blues
TTITLE0=Gypsy Woman
TTITLE1=Little Anna Mae
TTITLE2=I Can't Be Satisfied
TTITLE3=I Feel Like Going Home
TTITLE4=Train Fare Home
TTITLE5=Sittin' Here And Drinkin'
TTITLE6=You're Gonna Miss Me (When I'm Dead And Gone)
TTITLE7=Mean Red Spider
TTITLE8=Streamline Woman
TTITLE9=Muddy Jumps One
TTITLE10=Little Geneva
TTITLE11=Canary Bird
TTITLE12=Screaming And Crying
TTITLE13=Where's My Woman Been
TTITLE14=Rollin' And Tumblin' (Part 1)
TTITLE15=Rollin' And Tumblin' (Part 2)
TTITLE16=Rollin' Stone
TTITLE17=Walkin' Blues
TTITLE18=You're Gonna Need My Help
TTITLE19=Sad Letter Blues
TTITLE20=Louisiana Blues
TTITLE21=Evans Shuffle
TTITLE22=Long Distance Call
TTITLE23=Too Young To Know
TTITLE24=Appealing Blues
EXTD=
EXTT0=
EXTT1=
EXTT2=
EXTT3=
EXTT4=
EXTT5=
EXTT6=
EXTT7=
EXTT8=
EXTT9=
EXTT10=
EXTT11=
EXTT12=
EXTT13=
EXTT14=
EXTT15=
EXTT16=
EXTT17=
EXTT18=
EXTT19=
EXTT20=
EXTT21=
EXTT22=
EXTT23=
EXTT24=
PLAYORDER=
